<svg width="454" height="161" viewBox="0 0 454 161" fill="none" xmlns="http://www.w3.org/2000/svg">
<path d="M453.641 155.183C453.641 158.45 453.359 161.667 452.816 164.794H0.75V164.321C0.75 164.09 0.75001 163.859 0.76007 163.628C1.16247 131.007 30.1353 104.668 65.8382 104.668C70.5261 104.668 75.1034 105.131 79.4996 105.995C79.8115 104.92 80.1636 103.844 80.5358 102.789C84.8314 90.4339 92.0746 79.4463 101.41 70.6702C115.766 57.1896 135.101 48.9263 156.358 48.9263C171.589 48.9263 185.814 53.1686 197.946 60.5271C214.595 24.7999 250.852 0.0400391 292.892 0.0400391C347.488 0.0400391 392.305 41.7788 397.164 95.0581C429.125 99.4109 453.641 124.673 453.641 155.183Z" fill="#ADC5ED"/>
</svg>
