<svg width="467" height="242" viewBox="0 0 467 242" fill="none" xmlns="http://www.w3.org/2000/svg">
<path d="M466.94 202.688C466.94 211.192 465.37 219.365 462.463 226.955C460.039 233.278 456.699 239.219 452.574 244.627H325.225C324.541 245.019 323.857 245.411 323.152 245.793C322.911 245.934 322.659 246.075 322.408 246.206C322.297 246.075 322.187 245.934 322.076 245.793C321.764 245.411 321.452 245.019 321.16 244.627H-4.84375V66.2725C17.2379 27.0469 59.2686 0.558105 107.506 0.558105C159.235 0.558105 203.841 31.0077 224.333 74.9581C238.91 66.1318 255.952 60.9648 274.19 60.7235C274.623 60.7134 275.066 60.7134 275.498 60.7134C320.124 60.7134 357.829 90.3085 370.042 130.921C375.464 129.856 381.088 129.293 386.862 129.293C409.457 129.293 429.849 137.868 444.415 151.67C446.387 153.53 448.258 155.5 450.009 157.551C451.055 158.777 452.061 160.034 453.017 161.331C461.809 173.113 466.94 187.347 466.94 202.688Z" fill="#D9E2F5"/>
</svg>
