<svg width="647" height="481" viewBox="0 0 647 481" fill="none" xmlns="http://www.w3.org/2000/svg">
<path d="M490.672 362.76C471.662 159.51 300.592 0.439941 92.3716 0.439941C60.7016 0.439941 29.8916 4.11994 0.351562 11.0799V248.45C27.1916 232.16 58.6816 222.79 92.3716 222.79C169.922 222.79 235.862 272.46 260.122 341.73C266.572 360.12 270.072 379.9 270.072 400.49C270.072 406.14 269.812 411.73 269.292 417.24C267.162 440.02 260.732 461.54 250.832 481H295.672C295.972 481.41 296.292 481.81 296.612 482.2C297.332 481.81 298.042 481.41 298.742 481H484.322C485.232 476.57 486.062 472.13 486.812 467.64V467.63C486.882 467.25 486.952 466.87 487.012 466.49C488.572 457.1 489.802 447.59 490.692 437.99C491.662 427.59 492.232 417.08 492.382 406.46C492.422 404.47 492.432 402.48 492.432 400.49C492.432 387.76 491.842 375.18 490.672 362.76Z" fill="#D9E2F5"/>
<path d="M92.3716 73.52C60.4216 73.52 29.5416 78.1 0.351562 86.64V248.45C27.1916 232.16 58.6816 222.79 92.3716 222.79C190.512 222.79 270.072 302.35 270.072 400.49C270.072 429.47 263.132 456.83 250.832 481H409.822C416.282 455.36 419.712 428.51 419.712 400.86C419.712 220.07 273.162 73.52 92.3716 73.52Z" fill="#C1D2F0"/>
<path d="M92.3716 154.66C59.8416 154.66 28.7816 160.97 0.351562 172.44V248.45C27.1916 232.16 58.6816 222.79 92.3716 222.79C190.512 222.79 270.072 302.35 270.072 400.49C270.072 429.47 263.132 456.83 250.832 481H325.222C333.882 455.88 338.572 428.92 338.572 400.86C338.572 264.88 228.352 154.66 92.3716 154.66Z" fill="#ACC4EC"/>
<path d="M231.482 393.66C231.482 403.08 230.142 412.19 227.652 420.8C222.982 436.96 214.242 451.4 202.602 462.91C195.242 470.21 186.732 476.34 177.352 481H90.6222C90.3722 480.88 90.1222 480.76 89.8822 480.63C80.0222 475.63 71.1322 468.99 63.5722 461.08C46.7922 443.57 36.4922 419.81 36.4922 393.66C36.4922 390.64 36.6322 387.64 36.9022 384.69C41.4322 335.04 83.1622 296.16 133.982 296.16C173.122 296.16 206.882 319.22 222.392 352.51C228.222 365.01 231.482 378.96 231.482 393.66Z" fill="#D9E2F5"/>
<path d="M335.821 416.44C335.821 435.72 328.521 453.29 316.521 466.55C311.391 472.23 305.391 477.11 298.741 481C298.041 481.41 297.331 481.81 296.611 482.2C296.291 481.81 295.971 481.41 295.671 481H223.471C215.441 476.31 208.361 470.16 202.601 462.91C193.981 452.08 188.311 438.8 186.801 424.28C186.531 421.7 186.391 419.09 186.391 416.44C186.391 389.34 200.811 365.62 222.391 352.51C233.421 345.82 246.321 341.91 260.121 341.73C260.451 341.72 260.781 341.72 261.111 341.72C294.881 341.72 323.421 364.13 332.661 394.89C334.721 401.71 335.821 408.95 335.821 416.44Z" fill="#D9E2F5"/>
<path d="M405.995 449.24C405.995 455.68 404.805 461.87 402.605 467.62C400.775 472.41 398.245 476.91 395.125 481H298.745C298.045 481.41 297.335 481.81 296.615 482.2C296.295 481.81 295.975 481.41 295.675 481C288.815 472 284.805 461.05 284.805 449.24C284.805 442.34 286.175 435.73 288.685 429.64C295.865 412.15 312.385 398.87 332.665 394.89C336.765 394.08 341.025 393.66 345.395 393.66C364.805 393.66 382.085 402.03 393.185 415.06C393.975 415.99 394.735 416.94 395.455 417.92C402.115 426.84 405.995 437.62 405.995 449.24Z" fill="#D9E2F5"/>
<path d="M107.822 440.72C107.822 456.29 100.972 470.39 89.8816 480.63C89.7516 480.76 89.6116 480.88 89.4716 481H2.66156C1.87156 480.29 1.10156 479.55 0.351562 478.79V402.64C9.70156 393.19 22.4916 386.66 36.9016 384.69C39.8916 384.28 42.9516 384.07 46.0716 384.07C76.6016 384.07 101.952 404.4 106.932 431.1C107.522 434.23 107.822 437.44 107.822 440.72Z" fill="#D9E2F5"/>
<path d="M327.421 481H298.741C298.041 481.41 297.331 481.81 296.611 482.2C296.291 481.81 295.971 481.41 295.671 481H53.9609L63.5709 461.08L76.7909 433.67L106.931 431.1L186.801 424.28L227.651 420.8L269.291 417.24L278.721 416.44L288.681 429.64L316.521 466.55L327.421 481Z" fill="#D9E2F5"/>
<path d="M608.664 416.34C608.664 435.43 601.144 452.77 588.904 465.55C583.384 471.32 576.894 476.16 569.704 479.82C568.894 480.23 568.084 480.62 567.264 481H507.744C500.154 477.5 493.284 472.71 487.424 466.89C478.934 458.48 472.554 447.95 469.144 436.15C467.324 429.86 466.344 423.22 466.344 416.34C466.344 405.61 468.714 395.44 472.974 386.32C484.294 362.02 508.934 345.18 537.504 345.18C574.604 345.18 605.064 373.57 608.364 409.8C608.564 411.96 608.664 414.14 608.664 416.34Z" fill="#ADC5ED"/>
<path d="M499.252 432.97C499.252 434.9 499.152 436.81 498.952 438.7C497.852 449.29 493.712 458.98 487.422 466.89C487.222 467.14 487.022 467.38 486.812 467.63V467.64C482.332 473.08 476.812 477.63 470.562 481H418.862C418.842 480.99 418.832 480.98 418.812 480.97C413.332 478.01 408.412 474.13 404.262 469.55C403.692 468.92 403.132 468.27 402.602 467.62C394.832 458.2 390.172 446.13 390.172 432.97C390.172 427.5 390.972 422.22 392.482 417.24C392.692 416.51 392.932 415.78 393.182 415.06C400.592 393.73 420.872 378.43 444.712 378.43C455.062 378.43 464.732 381.31 472.972 386.32C481.062 391.22 487.772 398.18 492.382 406.46C496.762 414.31 499.252 423.35 499.252 432.97Z" fill="#ADC5ED"/>
<path d="M427.421 456.91C427.421 465.92 424.221 474.24 418.811 480.97L418.781 481H347.591C342.171 474.26 338.961 465.93 338.961 456.91C338.961 434.5 358.761 416.34 383.191 416.34C386.381 416.34 389.491 416.65 392.481 417.24C393.481 417.43 394.471 417.66 395.451 417.92C408.881 421.47 419.701 430.7 424.591 442.6C426.421 447.05 427.421 451.87 427.421 456.91Z" fill="#ADC5ED"/>
<path d="M646.742 450.69C646.742 462.66 641.192 473.45 632.322 481H571.032C570.582 480.62 570.132 480.23 569.702 479.82C561.612 472.35 556.602 462.05 556.602 450.69C556.602 448.3 556.822 445.95 557.252 443.67C560.882 424.18 579.392 409.34 601.672 409.34C603.942 409.34 606.182 409.49 608.362 409.8C630.082 412.76 646.742 429.94 646.742 450.69Z" fill="#ADC5ED"/>
<path d="M596.347 481H395.617L404.257 469.55L424.587 442.6L431.847 432.97L469.137 436.15L490.687 437.99L498.947 438.7L557.247 443.67L579.247 445.55L588.897 465.55L596.347 481Z" fill="#ADC5ED"/>
</svg>
